<svg width="40" height="40" viewBox="0 0 40 40" fill="none" xmlns="http://www.w3.org/2000/svg">
<path d="M27.425 12.425C27.7772 12.0897 28.2458 11.9043 28.732 11.908C29.2183 11.9117 29.6841 12.1041 30.0311 12.4447C30.3782 12.7853 30.5793 13.2473 30.5922 13.7334C30.6051 14.2195 30.4286 14.6915 30.1 15.05L20.125 27.525C19.9535 27.7097 19.7465 27.858 19.5163 27.9609C19.2862 28.0638 19.0377 28.1192 18.7856 28.1239C18.5336 28.1286 18.2832 28.0824 18.0494 27.988C17.8156 27.8937 17.6032 27.7532 17.425 27.575L10.81 20.96C10.6258 20.7883 10.478 20.5813 10.3755 20.3513C10.2731 20.1213 10.218 19.873 10.2135 19.6213C10.2091 19.3695 10.2554 19.1194 10.3497 18.886C10.444 18.6525 10.5844 18.4404 10.7624 18.2624C10.9405 18.0843 11.1525 17.944 11.386 17.8497C11.6195 17.7554 11.8695 17.709 12.1213 17.7135C12.3731 17.7179 12.6213 17.773 12.8513 17.8755C13.0813 17.978 13.2883 18.1257 13.46 18.31L18.695 23.5425L27.3775 12.48C27.3931 12.4607 27.4098 12.4424 27.4275 12.425H27.425Z" fill="white"/>
</svg>
